<?xml version="1.0" encoding="utf-8"?>
<!-- Generator: Adobe Illustrator 15.0.2, SVG Export Plug-In . SVG Version: 6.00 Build 0)  -->
<!DOCTYPE svg PUBLIC "-//W3C//DTD SVG 1.1//EN" "http://www.w3.org/Graphics/SVG/1.1/DTD/svg11.dtd">
<svg version="1.1" xmlns="http://www.w3.org/2000/svg" xmlns:xlink="http://www.w3.org/1999/xlink" x="0px" y="0px" width="800px"
	 height="800px" viewBox="0 0 800 800" enable-background="new 0 0 800 800" xml:space="preserve">
<g id="Others" display="none">
	<g id="Meh" display="inline">
		<g id="Base_copy_3">
			<g>
				<g>
					<g>
						<g>
							<polygon fill="#FCD036" points="11.352,-2289.404 37.333,-2304.404 63.313,-2289.404 63.313,-2259.404 37.333,-2244.404 
								11.352,-2259.404 							"/>
							
								<polyline fill="none" stroke="#231F20" stroke-width="10" stroke-linecap="round" stroke-linejoin="round" stroke-miterlimit="10" points="
								50.323,-2161.902 50.323,-2221.904 89.292,-2244.404 89.292,-2304.404 37.333,-2334.404 -14.629,-2304.404 
								-14.629,-2244.404 24.346,-2221.902 24.342,-2161.902 							"/>
						</g>
						
							<path fill="none" stroke="#231F20" stroke-width="2" stroke-linecap="round" stroke-linejoin="round" stroke-miterlimit="10" d="
							M102.285-2304.404"/>
						
							<path fill="none" stroke="#231F20" stroke-width="2" stroke-linecap="round" stroke-linejoin="round" stroke-miterlimit="10" d="
							M102.283-2191.236"/>
						
							<path fill="none" stroke="#231F20" stroke-width="2" stroke-linecap="round" stroke-linejoin="round" stroke-miterlimit="10" d="
							M-27.615-2304.406"/>
						
							<path fill="none" stroke="#231F20" stroke-width="2" stroke-linecap="round" stroke-linejoin="round" stroke-miterlimit="10" d="
							M-27.616-2191.236"/>
						
							<path fill="none" stroke="#231F20" stroke-width="2" stroke-linecap="round" stroke-linejoin="round" stroke-miterlimit="10" d="
							M46.795-2157.994"/>
						
							<path fill="none" stroke="#231F20" stroke-width="2" stroke-linecap="round" stroke-linejoin="round" stroke-miterlimit="10" d="
							M27.514-2157.994"/>
					</g>
					
						<circle fill="none" stroke="#231F20" stroke-width="2" stroke-linecap="round" stroke-linejoin="round" stroke-miterlimit="10" cx="37.334" cy="-2274.404" r="5"/>
					
						<line fill="none" stroke="#231F20" stroke-width="2" stroke-linecap="round" stroke-linejoin="round" stroke-miterlimit="10" x1="37.334" y1="-2269.404" x2="37.334" y2="-2161.902"/>
				</g>
				<g>
					<g>
						<g>
							<polygon fill="#FCD036" points="128.267,-2177.486 102.287,-2162.486 76.304,-2177.486 76.304,-2207.486 102.287,-2222.486 
								128.267,-2207.486 							"/>
							
								<polyline fill="none" stroke="#231F20" stroke-width="10" stroke-linecap="round" stroke-linejoin="round" stroke-miterlimit="10" points="
								89.294,-2304.987 89.294,-2244.985 50.325,-2222.486 50.325,-2162.486 102.287,-2132.486 154.248,-2162.486 
								154.248,-2222.486 115.273,-2244.987 115.273,-2304.987 							"/>
						</g>
						
							<path fill="none" stroke="#231F20" stroke-width="2" stroke-linecap="round" stroke-linejoin="round" stroke-miterlimit="10" d="
							M37.334-2162.486"/>
						
							<path fill="none" stroke="#231F20" stroke-width="2" stroke-linecap="round" stroke-linejoin="round" stroke-miterlimit="10" d="
							M37.334-2275.653"/>
						
							<path fill="none" stroke="#231F20" stroke-width="2" stroke-linecap="round" stroke-linejoin="round" stroke-miterlimit="10" d="
							M167.233-2162.484"/>
						
							<path fill="none" stroke="#231F20" stroke-width="2" stroke-linecap="round" stroke-linejoin="round" stroke-miterlimit="10" d="
							M167.233-2275.653"/>
						
							<path fill="none" stroke="#231F20" stroke-width="2" stroke-linecap="round" stroke-linejoin="round" stroke-miterlimit="10" d="
							M92.822-2308.896"/>
						
							<path fill="none" stroke="#231F20" stroke-width="2" stroke-linecap="round" stroke-linejoin="round" stroke-miterlimit="10" d="
							M112.105-2308.896"/>
					</g>
					
						<circle fill="none" stroke="#231F20" stroke-width="2" stroke-linecap="round" stroke-linejoin="round" stroke-miterlimit="10" cx="102.284" cy="-2192.486" r="5.001"/>
					
						<line fill="none" stroke="#231F20" stroke-width="2" stroke-linecap="round" stroke-linejoin="round" stroke-miterlimit="10" x1="102.285" y1="-2197.486" x2="102.285" y2="-2304.987"/>
				</g>
				<g>
					<g>
						<g>
							<polygon fill="#FCD036" points="-1.635,-2176.902 -27.616,-2161.902 -53.597,-2176.902 -53.597,-2206.902 -27.616,-2221.902 
								-1.635,-2206.902 							"/>
							
								<polyline fill="none" stroke="#231F20" stroke-width="10" stroke-linecap="round" stroke-linejoin="round" stroke-miterlimit="10" points="
								-14.625,-2304.404 -14.629,-2244.404 24.346,-2221.902 24.346,-2161.902 -27.616,-2131.902 -79.578,-2161.902 
								-79.578,-2221.902 -40.607,-2244.402 -40.607,-2304.404 							"/>
						</g>
						
							<path fill="none" stroke="#231F20" stroke-width="2" stroke-linecap="round" stroke-linejoin="round" stroke-miterlimit="10" d="
							M-92.568-2161.902"/>
						
							<path fill="none" stroke="#231F20" stroke-width="2" stroke-linecap="round" stroke-linejoin="round" stroke-miterlimit="10" d="
							M-92.568-2275.07"/>
						
							<path fill="none" stroke="#231F20" stroke-width="2" stroke-linecap="round" stroke-linejoin="round" stroke-miterlimit="10" d="
							M37.332-2161.9"/>
						
							<path fill="none" stroke="#231F20" stroke-width="2" stroke-linecap="round" stroke-linejoin="round" stroke-miterlimit="10" d="
							M37.332-2275.07"/>
						
							<path fill="none" stroke="#231F20" stroke-width="2" stroke-linecap="round" stroke-linejoin="round" stroke-miterlimit="10" d="
							M-37.08-2308.313"/>
						
							<path fill="none" stroke="#231F20" stroke-width="2" stroke-linecap="round" stroke-linejoin="round" stroke-miterlimit="10" d="
							M-17.797-2308.313"/>
					</g>
					
						<circle fill="none" stroke="#231F20" stroke-width="2" stroke-linecap="round" stroke-linejoin="round" stroke-miterlimit="10" cx="-27.618" cy="-2191.904" r="5"/>
					
						<line fill="none" stroke="#231F20" stroke-width="2" stroke-linecap="round" stroke-linejoin="round" stroke-miterlimit="10" x1="-27.618" y1="-2196.904" x2="-27.618" y2="-2304.404"/>
				</g>
			</g>
			<rect x="-72.418" y="-2116.652" fill="none" width="219.5" height="52.5"/>
			<text transform="matrix(1 0 0 1 -70.7271 -2072.5537)"><tspan x="0" y="0" font-family="'Aileron-Light'" font-size="60">Hack</tspan><tspan x="134.519" y="0" font-family="'Aileron-Bold'" font-size="60">GT</tspan></text>
		</g>
		<g id="Base_copy">
			<g>
				<g>
					<g>
						<g>
							<polygon fill="#FCD036" points="17.235,-2580.167 43.215,-2595.167 69.196,-2580.167 69.196,-2550.167 43.215,-2535.167 
								17.235,-2550.167 							"/>
							
								<polyline fill="none" stroke="#231F20" stroke-width="10" stroke-linecap="round" stroke-linejoin="round" stroke-miterlimit="10" points="
								56.206,-2452.666 56.206,-2512.668 95.175,-2535.167 95.175,-2595.167 43.215,-2625.167 -8.747,-2595.167 -8.747,-2535.167 
								30.229,-2512.666 30.225,-2452.666 							"/>
						</g>
						<path fill="none" stroke="#231F20" stroke-width="2" stroke-miterlimit="10" d="M108.167-2595.167"/>
						<path fill="none" stroke="#231F20" stroke-width="2" stroke-miterlimit="10" d="M108.166-2482"/>
						<path fill="none" stroke="#231F20" stroke-width="2" stroke-miterlimit="10" d="M-21.732-2595.169"/>
						<path fill="none" stroke="#231F20" stroke-width="2" stroke-miterlimit="10" d="M-21.733-2482"/>
						<path fill="none" stroke="#231F20" stroke-width="2" stroke-miterlimit="10" d="M52.678-2448.758"/>
						<path fill="none" stroke="#231F20" stroke-width="2" stroke-miterlimit="10" d="M33.397-2448.758"/>
					</g>
					<circle fill="none" stroke="#231F20" stroke-width="2" stroke-miterlimit="10" cx="43.217" cy="-2565.167" r="5"/>
					
						<line fill="none" stroke="#231F20" stroke-width="2" stroke-linecap="round" stroke-miterlimit="10" x1="43.217" y1="-2560.167" x2="43.217" y2="-2452.666"/>
				</g>
				<g>
					<g>
						<g>
							<polygon fill="#FCD036" points="134.149,-2466.295 108.168,-2451.295 82.186,-2466.295 82.186,-2496.295 108.168,-2511.295 
								134.149,-2496.295 							"/>
							
								<polyline fill="none" stroke="#231F20" stroke-width="10" stroke-linecap="round" stroke-linejoin="round" stroke-miterlimit="10" points="
								95.176,-2593.796 95.176,-2533.794 56.207,-2511.295 56.207,-2451.295 108.168,-2421.295 160.129,-2451.295 
								160.129,-2511.295 121.155,-2533.796 							"/>
						</g>
						<path fill="none" stroke="#231F20" stroke-width="2" stroke-miterlimit="10" d="M43.216-2451.295"/>
						<path fill="none" stroke="#231F20" stroke-width="2" stroke-miterlimit="10" d="M43.216-2564.462"/>
						<path fill="none" stroke="#231F20" stroke-width="2" stroke-miterlimit="10" d="M173.115-2451.293"/>
						<path fill="none" stroke="#231F20" stroke-width="2" stroke-miterlimit="10" d="M173.115-2564.462"/>
						<path fill="none" stroke="#231F20" stroke-width="2" stroke-miterlimit="10" d="M98.704-2597.705"/>
						<path fill="none" stroke="#231F20" stroke-width="2" stroke-miterlimit="10" d="M117.987-2597.705"/>
					</g>
					<circle fill="none" stroke="#231F20" stroke-width="2" stroke-miterlimit="10" cx="108.166" cy="-2481.296" r="5.001"/>
					
						<line fill="none" stroke="#231F20" stroke-width="2" stroke-linecap="round" stroke-miterlimit="10" x1="108.167" y1="-2486.296" x2="108.167" y2="-2593.796"/>
				</g>
				<g>
					<g>
						<g>
							<polygon fill="#FCD036" points="4.248,-2467.666 -21.733,-2452.666 -47.714,-2467.666 -47.714,-2497.666 -21.733,-2512.666 
								4.248,-2497.666 							"/>
							
								<polyline fill="none" stroke="#231F20" stroke-width="10" stroke-linecap="round" stroke-linejoin="round" stroke-miterlimit="10" points="
								-34.724,-2535.165 -73.695,-2512.666 -73.695,-2452.666 -21.733,-2422.666 30.229,-2452.666 30.229,-2512.666 							"/>
						</g>
						<path fill="none" stroke="#231F20" stroke-width="2" stroke-miterlimit="10" d="M-86.685-2452.666"/>
						<path fill="none" stroke="#231F20" stroke-width="2" stroke-miterlimit="10" d="M-86.685-2565.833"/>
						<path fill="none" stroke="#231F20" stroke-width="2" stroke-miterlimit="10" d="M43.214-2452.664"/>
						<path fill="none" stroke="#231F20" stroke-width="2" stroke-miterlimit="10" d="M43.214-2565.833"/>
						<path fill="none" stroke="#231F20" stroke-width="2" stroke-miterlimit="10" d="M-31.197-2599.076"/>
						<path fill="none" stroke="#231F20" stroke-width="2" stroke-miterlimit="10" d="M-11.915-2599.076"/>
					</g>
					<circle fill="none" stroke="#231F20" stroke-width="2" stroke-miterlimit="10" cx="-21.735" cy="-2482.667" r="5"/>
					
						<line fill="none" stroke="#231F20" stroke-width="2" stroke-linecap="round" stroke-miterlimit="10" x1="-21.735" y1="-2487.667" x2="-21.735" y2="-2595.167"/>
				</g>
			</g>
			<rect x="-66.536" y="-2407.416" fill="none" width="219.5" height="52.5"/>
			<text transform="matrix(1 0 0 1 -64.8442 -2363.3169)"><tspan x="0" y="0" font-family="'Aileron-Light'" font-size="60">Hack</tspan><tspan x="134.519" y="0" font-family="'Aileron-Bold'" font-size="60">GT</tspan></text>
		</g>
		<g id="Base_copy_2">
			<g>
				<g>
					<g>
						<g>
							<polygon fill="#FCD036" points="-279.412,-2290.287 -253.432,-2305.287 -227.451,-2290.287 -227.451,-2260.287 
								-253.432,-2245.287 -279.412,-2260.287 							"/>
							<polyline fill="none" stroke="#231F20" stroke-width="10" stroke-miterlimit="10" points="-240.441,-2162.786 
								-240.441,-2222.788 -201.472,-2245.287 -201.472,-2305.287 -253.432,-2335.287 -305.394,-2305.287 -305.394,-2245.287 
								-266.418,-2222.786 -266.422,-2162.786 							"/>
						</g>
						<path fill="none" stroke="#231F20" stroke-width="2" stroke-miterlimit="10" d="M-188.479-2305.287"/>
						<path fill="none" stroke="#231F20" stroke-width="2" stroke-miterlimit="10" d="M-188.481-2192.12"/>
						<path fill="none" stroke="#231F20" stroke-width="2" stroke-miterlimit="10" d="M-318.379-2305.289"/>
						<path fill="none" stroke="#231F20" stroke-width="2" stroke-miterlimit="10" d="M-318.38-2192.12"/>
						<path fill="none" stroke="#231F20" stroke-width="2" stroke-miterlimit="10" d="M-243.969-2158.878"/>
						<path fill="none" stroke="#231F20" stroke-width="2" stroke-miterlimit="10" d="M-263.25-2158.878"/>
					</g>
				</g>
				<g>
					<g>
						<g>
							<polygon fill="#FCD036" points="-162.497,-2178.369 -188.478,-2163.369 -214.46,-2178.369 -214.46,-2208.369 
								-188.478,-2223.369 -162.497,-2208.369 							"/>
							<polyline fill="none" stroke="#231F20" stroke-width="10" stroke-miterlimit="10" points="-201.47,-2305.871 
								-201.47,-2245.869 -240.439,-2223.369 -240.439,-2163.369 -188.478,-2133.369 -136.517,-2163.369 -136.517,-2223.369 
								-175.491,-2245.871 -175.491,-2305.871 							"/>
						</g>
						<path fill="none" stroke="#231F20" stroke-width="2" stroke-miterlimit="10" d="M-253.43-2163.369"/>
						<path fill="none" stroke="#231F20" stroke-width="2" stroke-miterlimit="10" d="M-253.43-2276.537"/>
						<path fill="none" stroke="#231F20" stroke-width="2" stroke-miterlimit="10" d="M-123.531-2163.367"/>
						<path fill="none" stroke="#231F20" stroke-width="2" stroke-miterlimit="10" d="M-123.531-2276.537"/>
						<path fill="none" stroke="#231F20" stroke-width="2" stroke-miterlimit="10" d="M-197.942-2309.779"/>
						<path fill="none" stroke="#231F20" stroke-width="2" stroke-miterlimit="10" d="M-178.659-2309.779"/>
					</g>
				</g>
				<g>
					<g>
						<g>
							<polygon fill="#FCD036" points="-292.399,-2177.786 -318.38,-2162.786 -344.361,-2177.786 -344.361,-2207.786 
								-318.38,-2222.786 -292.399,-2207.786 							"/>
							<polyline fill="none" stroke="#231F20" stroke-width="10" stroke-miterlimit="10" points="-305.39,-2305.287 
								-305.394,-2245.287 -266.418,-2222.786 -266.418,-2162.786 -318.38,-2132.786 -370.342,-2162.786 -370.342,-2222.786 
								-331.371,-2245.285 -331.371,-2305.287 							"/>
						</g>
						<path fill="none" stroke="#231F20" stroke-width="2" stroke-miterlimit="10" d="M-383.332-2162.786"/>
						<path fill="none" stroke="#231F20" stroke-width="2" stroke-miterlimit="10" d="M-383.332-2275.953"/>
						<path fill="none" stroke="#231F20" stroke-width="2" stroke-miterlimit="10" d="M-253.433-2162.784"/>
						<path fill="none" stroke="#231F20" stroke-width="2" stroke-miterlimit="10" d="M-253.433-2275.953"/>
						<path fill="none" stroke="#231F20" stroke-width="2" stroke-miterlimit="10" d="M-327.844-2309.195"/>
						<path fill="none" stroke="#231F20" stroke-width="2" stroke-miterlimit="10" d="M-308.562-2309.195"/>
					</g>
				</g>
			</g>
			<rect x="-363.183" y="-2117.536" fill="none" width="219.5" height="52.5"/>
			<text transform="matrix(1 0 0 1 -361.4917 -2073.4375)"><tspan x="0" y="0" font-family="'Aileron-Light'" font-size="60">Hack</tspan><tspan x="134.519" y="0" font-family="'Aileron-Bold'" font-size="60">GT</tspan></text>
		</g>
	</g>
	<g id="Base" display="inline">
		<g>
			<g>
				<g>
					<g>
						<polygon fill="#FCD036" points="321.818,-2580.167 347.799,-2595.167 373.779,-2580.167 373.779,-2550.167 347.799,-2535.167 
							321.818,-2550.167 						"/>
						<polyline fill="none" stroke="#231F20" stroke-width="10" stroke-miterlimit="10" points="360.789,-2452.666 
							360.789,-2512.668 399.759,-2535.167 399.759,-2595.167 347.799,-2625.167 295.837,-2595.167 295.837,-2535.167 
							334.813,-2512.666 334.809,-2452.666 						"/>
					</g>
					<path fill="none" stroke="#231F20" stroke-width="2" stroke-miterlimit="10" d="M412.751-2595.167"/>
					<path fill="none" stroke="#231F20" stroke-width="2" stroke-miterlimit="10" d="M412.749-2482"/>
					<path fill="none" stroke="#231F20" stroke-width="2" stroke-miterlimit="10" d="M282.852-2595.169"/>
					<path fill="none" stroke="#231F20" stroke-width="2" stroke-miterlimit="10" d="M282.851-2482"/>
					<path fill="none" stroke="#231F20" stroke-width="2" stroke-miterlimit="10" d="M357.262-2448.758"/>
					<path fill="none" stroke="#231F20" stroke-width="2" stroke-miterlimit="10" d="M337.98-2448.758"/>
				</g>
				<circle fill="none" stroke="#231F20" stroke-width="2" stroke-miterlimit="10" cx="347.801" cy="-2565.167" r="5"/>
				
					<line fill="none" stroke="#231F20" stroke-width="2" stroke-linecap="round" stroke-miterlimit="10" x1="347.801" y1="-2560.167" x2="347.801" y2="-2452.666"/>
			</g>
			<g>
				<g>
					<g>
						<polygon fill="#FCD036" points="438.733,-2468.249 412.753,-2453.249 386.771,-2468.249 386.771,-2498.249 412.753,-2513.249 
							438.733,-2498.249 						"/>
						<polyline fill="none" stroke="#231F20" stroke-width="10" stroke-miterlimit="10" points="399.761,-2595.75 
							399.761,-2535.749 360.791,-2513.249 360.791,-2453.249 412.753,-2423.249 464.714,-2453.249 464.714,-2513.249 
							425.739,-2535.75 						"/>
					</g>
					<path fill="none" stroke="#231F20" stroke-width="2" stroke-miterlimit="10" d="M347.801-2453.249"/>
					<path fill="none" stroke="#231F20" stroke-width="2" stroke-miterlimit="10" d="M347.801-2566.417"/>
					<path fill="none" stroke="#231F20" stroke-width="2" stroke-miterlimit="10" d="M477.7-2453.247"/>
					<path fill="none" stroke="#231F20" stroke-width="2" stroke-miterlimit="10" d="M477.7-2566.417"/>
					<path fill="none" stroke="#231F20" stroke-width="2" stroke-miterlimit="10" d="M403.288-2599.659"/>
					<path fill="none" stroke="#231F20" stroke-width="2" stroke-miterlimit="10" d="M422.571-2599.659"/>
				</g>
				<circle fill="none" stroke="#231F20" stroke-width="2" stroke-miterlimit="10" cx="412.75" cy="-2483.25" r="5.001"/>
				
					<line fill="none" stroke="#231F20" stroke-width="2" stroke-linecap="round" stroke-miterlimit="10" x1="412.751" y1="-2488.25" x2="412.751" y2="-2595.75"/>
			</g>
			<g>
				<g>
					<g>
						<polygon fill="#FCD036" points="308.831,-2467.666 282.851,-2452.666 256.869,-2467.666 256.869,-2497.666 282.851,-2512.666 
							308.831,-2497.666 						"/>
						<polyline fill="none" stroke="#231F20" stroke-width="10" stroke-miterlimit="10" points="269.859,-2535.165 
							230.889,-2512.666 230.889,-2452.666 282.851,-2422.666 334.813,-2452.666 334.813,-2512.666 295.837,-2535.167 
							295.841,-2595.167 						"/>
					</g>
					<path fill="none" stroke="#231F20" stroke-width="2" stroke-miterlimit="10" d="M217.898-2452.666"/>
					<path fill="none" stroke="#231F20" stroke-width="2" stroke-miterlimit="10" d="M217.898-2565.833"/>
					<path fill="none" stroke="#231F20" stroke-width="2" stroke-miterlimit="10" d="M347.798-2452.664"/>
					<path fill="none" stroke="#231F20" stroke-width="2" stroke-miterlimit="10" d="M347.798-2565.833"/>
					<path fill="none" stroke="#231F20" stroke-width="2" stroke-miterlimit="10" d="M273.387-2599.076"/>
					<path fill="none" stroke="#231F20" stroke-width="2" stroke-miterlimit="10" d="M292.669-2599.076"/>
				</g>
				<circle fill="none" stroke="#231F20" stroke-width="2" stroke-miterlimit="10" cx="282.848" cy="-2482.667" r="5"/>
				
					<line fill="none" stroke="#231F20" stroke-width="2" stroke-linecap="round" stroke-miterlimit="10" x1="282.849" y1="-2487.667" x2="282.849" y2="-2595.167"/>
			</g>
		</g>
		<rect x="238.048" y="-2407.416" fill="none" width="219.5" height="52.5"/>
		<text transform="matrix(1 0 0 1 239.7388 -2363.3169)"><tspan x="0" y="0" font-family="'Aileron-Light'" font-size="60">Hack</tspan><tspan x="134.519" y="0" font-family="'Aileron-Bold'" font-size="60">GT</tspan></text>
	</g>
	<g id="Base_copy_5" display="inline">
		<g>
			<g>
				<g>
					<g>
						<polygon fill="#FCD036" points="293.112,-2580.167 319.093,-2595.167 345.073,-2580.167 345.073,-2550.167 319.093,-2535.167 
							293.112,-2550.167 						"/>
						<polyline fill="none" stroke="#231F20" stroke-width="10" stroke-miterlimit="10" points="332.083,-2452.666 
							332.083,-2512.668 371.053,-2535.167 371.053,-2595.167 319.093,-2625.167 267.131,-2595.167 267.131,-2535.167 
							306.106,-2512.666 306.103,-2452.666 						"/>
					</g>
					<path fill="none" stroke="#231F20" stroke-width="2" stroke-miterlimit="10" d="M384.045-2595.167"/>
					<path fill="none" stroke="#231F20" stroke-width="2" stroke-miterlimit="10" d="M384.043-2482"/>
					<path fill="none" stroke="#231F20" stroke-width="2" stroke-miterlimit="10" d="M254.146-2595.169"/>
					<path fill="none" stroke="#231F20" stroke-width="2" stroke-miterlimit="10" d="M254.145-2482"/>
					<path fill="none" stroke="#231F20" stroke-width="2" stroke-miterlimit="10" d="M328.556-2448.758"/>
					<path fill="none" stroke="#231F20" stroke-width="2" stroke-miterlimit="10" d="M309.274-2448.758"/>
				</g>
				<circle fill="none" stroke="#231F20" stroke-width="2" stroke-miterlimit="10" cx="319.095" cy="-2565.167" r="5"/>
				
					<line fill="none" stroke="#231F20" stroke-width="2" stroke-linecap="round" stroke-miterlimit="10" x1="319.095" y1="-2560.167" x2="319.095" y2="-2452.666"/>
			</g>
			<g>
				<g>
					<g>
						<polygon fill="#FCD036" points="410.027,-2468.249 384.047,-2453.249 358.064,-2468.249 358.064,-2498.249 384.047,-2513.249 
							410.027,-2498.249 						"/>
						<polyline fill="none" stroke="#231F20" stroke-width="10" stroke-miterlimit="10" points="371.055,-2595.75 
							371.055,-2535.749 332.085,-2513.249 332.085,-2453.249 384.047,-2423.249 436.008,-2453.249 436.008,-2513.249 
							397.033,-2535.75 397.033,-2595.167 						"/>
					</g>
					<path fill="none" stroke="#231F20" stroke-width="2" stroke-miterlimit="10" d="M319.095-2453.249"/>
					<path fill="none" stroke="#231F20" stroke-width="2" stroke-miterlimit="10" d="M319.095-2566.417"/>
					<path fill="none" stroke="#231F20" stroke-width="2" stroke-miterlimit="10" d="M448.994-2453.247"/>
					<path fill="none" stroke="#231F20" stroke-width="2" stroke-miterlimit="10" d="M448.994-2566.417"/>
					<path fill="none" stroke="#231F20" stroke-width="2" stroke-miterlimit="10" d="M374.582-2599.659"/>
					<path fill="none" stroke="#231F20" stroke-width="2" stroke-miterlimit="10" d="M393.865-2599.659"/>
				</g>
				<circle fill="none" stroke="#231F20" stroke-width="2" stroke-miterlimit="10" cx="384.044" cy="-2483.25" r="5.001"/>
				
					<line fill="none" stroke="#231F20" stroke-width="2" stroke-linecap="round" stroke-miterlimit="10" x1="384.045" y1="-2488.25" x2="384.045" y2="-2595.75"/>
			</g>
		</g>
		<rect x="241.819" y="-2407.416" fill="none" width="219.5" height="52.5"/>
		<text transform="matrix(1 0 0 1 243.5107 -2363.3169)"><tspan x="0" y="0" font-family="'Aileron-Light'" font-size="60">Hack</tspan><tspan x="134.519" y="0" font-family="'Aileron-Bold'" font-size="60">GT</tspan></text>
	</g>
	<g id="Base_copy_6" display="inline">
		<g>
			<g>
				<g>
					<g>
						<polygon fill="#FCD036" points="243.879,-2153.942 243.879,-2183.942 269.86,-2198.942 295.841,-2183.942 295.841,-2153.942 
							269.86,-2138.942 						"/>
						<polyline fill="none" stroke="#231F20" stroke-width="10" stroke-miterlimit="10" points="360.794,-2101.441 
							308.835,-2131.444 269.86,-2108.941 217.898,-2138.941 217.898,-2198.942 269.859,-2228.94 321.821,-2198.94 
							321.822,-2153.942 373.785,-2123.941 						"/>
					</g>
					<path fill="none" stroke="#231F20" stroke-width="2" stroke-miterlimit="10" d="M276.355-2240.192"/>
					<path fill="none" stroke="#231F20" stroke-width="2" stroke-miterlimit="10" d="M374.361-2183.606"/>
					<path fill="none" stroke="#231F20" stroke-width="2" stroke-miterlimit="10" d="M211.404-2127.697"/>
					<path fill="none" stroke="#231F20" stroke-width="2" stroke-miterlimit="10" d="M309.412-2071.111"/>
					<path fill="none" stroke="#231F20" stroke-width="2" stroke-miterlimit="10" d="M375.406-2118.933"/>
					<path fill="none" stroke="#231F20" stroke-width="2" stroke-miterlimit="10" d="M365.765-2102.234"/>
				</g>
			</g>
		</g>
		<rect x="309.411" y="-2208.674" fill="none" width="551.767" height="79.462"/>
		<text transform="matrix(1 0 0 1 390.7891 -2129.2949)"><tspan x="0" y="0" font-family="'Aileron-Light'" font-size="108">Hack</tspan><tspan x="242.133" y="0" font-family="'Aileron-Bold'" font-size="108">GT</tspan></text>
		<circle fill="none" stroke="#231F20" stroke-width="2" stroke-miterlimit="10" cx="269.86" cy="-2168.941" r="5"/>
		<polyline fill="none" stroke="#231F20" stroke-width="2" stroke-miterlimit="10" points="274.19,-2166.441 371.076,-2110.505 
			750.983,-2110.505 		"/>
	</g>
</g>
<g id="Final_Base" display="none">
	<rect x="-57.566" y="-2313.592" display="inline" fill="none" width="219.5" height="52.5"/>
	<text transform="matrix(1 0 0 1 -55.8745 -2269.4922)" display="inline"><tspan x="0" y="0" font-family="'Aileron-Light'" font-size="60">Hack</tspan><tspan x="134.519" y="0" font-family="'Aileron-Bold'" font-size="60">GT</tspan></text>
	<g display="inline">
		<polygon fill="#FCD036" points="-12.769,-2494.084 13.212,-2509.084 39.193,-2494.084 39.193,-2464.084 13.212,-2449.084 
			-12.769,-2464.084 		"/>
		<polygon fill="#FCD036" points="52.185,-2409.417 78.165,-2424.417 104.146,-2409.417 104.146,-2379.417 78.165,-2364.417 
			52.185,-2379.417 		"/>
	</g>
	<g display="inline">
		<circle fill="none" stroke="#231F20" stroke-width="2" stroke-miterlimit="10" cx="13.212" cy="-2479.084" r="5"/>
		
			<line fill="none" stroke="#231F20" stroke-width="2" stroke-linecap="round" stroke-miterlimit="10" x1="13.212" y1="-2474.084" x2="13.212" y2="-2364.417"/>
		<circle fill="none" stroke="#231F20" stroke-width="2" stroke-miterlimit="10" cx="78.165" cy="-2394.417" r="5"/>
		
			<line fill="none" stroke="#231F20" stroke-width="2" stroke-linecap="round" stroke-miterlimit="10" x1="78.165" y1="-2509.084" x2="78.165" y2="-2399.417"/>
	</g>
	<g display="inline">
		
			<polyline fill="none" stroke="#231F20" stroke-width="6" stroke-linecap="round" stroke-linejoin="round" stroke-miterlimit="10" points="
			-38.75,-2449.084 -38.75,-2509.084 13.212,-2539.084 65.174,-2509.084 65.174,-2449.084 		"/>
		
			<line fill="none" stroke="#231F20" stroke-width="6" stroke-linecap="round" stroke-linejoin="round" stroke-miterlimit="10" x1="-38.75" y1="-2449.084" x2="0.222" y2="-2426.584"/>
		
			<line fill="none" stroke="#231F20" stroke-width="6" stroke-linecap="round" stroke-linejoin="round" stroke-miterlimit="10" x1="65.174" y1="-2449.084" x2="26.203" y2="-2426.584"/>
		
			<polyline fill="none" stroke="#231F20" stroke-width="6" stroke-linecap="round" stroke-linejoin="round" stroke-miterlimit="10" points="
			130.127,-2426.584 130.127,-2366.584 78.165,-2336.584 26.203,-2366.584 26.203,-2426.584 		"/>
		
			<line fill="none" stroke="#231F20" stroke-width="6" stroke-linecap="round" stroke-linejoin="round" stroke-miterlimit="10" x1="91.155" y1="-2449.084" x2="130.127" y2="-2426.584"/>
	</g>
</g>
<g id="Light" display="none">
	<g id="Light_BG">
		<rect x="153.163" y="-2657.84" display="inline" fill="#FFFDE0" width="2000" height="1879.615"/>
	</g>
	<g id="Logos_1_" display="inline">
		<g id="Side_Stacked">
			<g>
				<g>
					<polygon fill="#FCD036" points="297.599,-2506.501 348.918,-2536.13 400.24,-2506.501 400.24,-2447.241 348.918,-2417.612 
						297.599,-2447.241 					"/>
					<polygon fill="#FCD036" points="425.902,-2339.259 477.221,-2368.89 528.541,-2339.259 528.541,-2280.001 477.221,-2250.37 
						425.902,-2280.001 					"/>
				</g>
				<g>
					<circle fill="none" stroke="#231F20" stroke-width="4" stroke-miterlimit="10" cx="348.919" cy="-2476.872" r="9.876"/>
					
						<line fill="none" stroke="#231F20" stroke-width="4" stroke-linecap="round" stroke-miterlimit="10" x1="348.918" y1="-2466.995" x2="348.918" y2="-2250.37"/>
					<circle fill="none" stroke="#231F20" stroke-width="4" stroke-miterlimit="10" cx="477.221" cy="-2309.63" r="9.876"/>
					
						<line fill="none" stroke="#231F20" stroke-width="4" stroke-linecap="round" stroke-miterlimit="10" x1="477.221" y1="-2536.13" x2="477.221" y2="-2319.507"/>
				</g>
				<g>
					
						<polyline fill="none" stroke="#231F20" stroke-width="12" stroke-linecap="round" stroke-linejoin="round" stroke-miterlimit="10" points="
						246.278,-2415.473 246.278,-2533.991 348.918,-2593.25 451.56,-2533.991 451.56,-2415.473 					"/>
					
						<line fill="none" stroke="#231F20" stroke-width="12" stroke-linecap="round" stroke-linejoin="round" stroke-miterlimit="10" x1="246.278" y1="-2415.473" x2="323.259" y2="-2371.028"/>
					
						<line fill="none" stroke="#231F20" stroke-width="12" stroke-linecap="round" stroke-linejoin="round" stroke-miterlimit="10" x1="451.56" y1="-2415.473" x2="374.581" y2="-2371.028"/>
					
						<polyline fill="none" stroke="#231F20" stroke-width="12" stroke-linecap="round" stroke-linejoin="round" stroke-miterlimit="10" points="
						579.862,-2371.028 579.862,-2252.51 477.221,-2193.25 374.581,-2252.51 374.581,-2371.028 					"/>
					
						<line fill="none" stroke="#231F20" stroke-width="12" stroke-linecap="round" stroke-linejoin="round" stroke-miterlimit="10" x1="502.88" y1="-2415.473" x2="579.862" y2="-2371.028"/>
				</g>
				<g>
					<g>
						<path d="M675.708-2408.15h-12.418v-62.484h-80.908v62.484h-12.415v-138.186h12.415v65.088h80.908v-65.088h12.418V-2408.15z"/>
						<path d="M767.225-2427.377l-5.405,11.217c-7.411,7.408-17.826,10.814-29.438,10.814c-19.629,0-33.648-10.213-33.648-29.439
							c0-24.232,23.031-36.049,61.283-36.049h6.81v-3.807c0-4.805,0-8.811-0.401-13.016c-1.001-12.215-8.411-19.227-23.633-19.227
							c-14.619,0-25.031,7.811-26.636,24.232H703.14c1.4-20.828,17.224-34.244,39.652-34.244c23.433,0,34.446,10.613,36.05,28.037
							c0.399,4.605,0.399,9.01,0.399,14.018v37.049c0,9.414,0.601,17.025,2.003,29.641h-12.416L767.225-2427.377z M766.827-2461.223
							c-29.841-2.201-54.475,5.01-54.475,25.436c0,13.418,8.414,20.625,23.834,20.625c18.424,0,30.641-14.018,30.641-33.844
							V-2461.223z"/>
						<path d="M892.392-2441.193c-4.809,23.432-22.231,35.848-45.061,35.848c-26.437,0-47.063-18.225-47.063-55.674
							c0-35.049,22.629-55.875,49.265-55.875c24.434,0,40.654,15.02,43.86,37.449h-13.019
							c-3.605-17.824-14.219-27.637-31.242-27.637c-17.825,0-35.246,14.418-35.246,45.059c0,32.645,16.421,46.861,34.243,46.861
							c15.622,0,27.638-9.01,31.442-26.031H892.392z"/>
						<path d="M926.432-2445.402v37.252h-12.416v-147.197h12.416v96.129l54.273-54.873h16.222l-51.871,50.668l52.271,55.273h-17.224
							l-44.059-47.463L926.432-2445.402z"/>
					</g>
					<g>
						<path d="M788.342-2309.076v74.998h-25.905l-2.507-22.77l-6.477,15.459c-8.147,7.52-18.802,10.236-34.47,10.236
							c-39.277,0-65.391-27.16-65.391-74.162c0-48.469,32.383-75.838,71.865-75.838c39.486,0,61.422,21.309,64.346,49.516h-33.008
							c-3.343-16.297-14.415-25.281-31.755-25.281c-20.892,0-36.978,17.756-36.978,49.721c0,36.143,16.297,51.811,36.77,51.811
							c16.922,0,28.62-9.816,32.381-28.201h-29.457v-25.488H788.342z"/>
						<path d="M878.801-2352.738v118.66H846.21v-118.66h-48.05v-25.488h128.69v25.488H878.801z"/>
					</g>
				</g>
			</g>
		</g>
		<g id="Centered">
			<g>
				<g>
					<polygon fill="#FCD036" points="1505.844,-2471.091 1557.164,-2500.72 1608.485,-2471.091 1608.485,-2411.831 
						1557.164,-2382.201 1505.844,-2411.831 					"/>
					<polygon fill="#FCD036" points="1634.147,-2303.848 1685.466,-2333.479 1736.786,-2303.848 1736.786,-2244.59 
						1685.466,-2214.959 1634.147,-2244.59 					"/>
				</g>
				<g>
					<circle fill="none" stroke="#231F20" stroke-width="4" stroke-miterlimit="10" cx="1557.164" cy="-2441.462" r="9.876"/>
					
						<line fill="none" stroke="#231F20" stroke-width="4" stroke-linecap="round" stroke-miterlimit="10" x1="1557.164" y1="-2431.585" x2="1557.164" y2="-2214.959"/>
					<circle fill="none" stroke="#231F20" stroke-width="4" stroke-miterlimit="10" cx="1685.466" cy="-2274.219" r="9.876"/>
					
						<line fill="none" stroke="#231F20" stroke-width="4" stroke-linecap="round" stroke-miterlimit="10" x1="1685.466" y1="-2500.72" x2="1685.466" y2="-2284.096"/>
				</g>
				<g>
					
						<polyline fill="none" stroke="#231F20" stroke-width="12" stroke-linecap="round" stroke-linejoin="round" stroke-miterlimit="10" points="
						1454.523,-2380.063 1454.523,-2498.581 1557.164,-2557.84 1659.805,-2498.581 1659.805,-2380.063 					"/>
					
						<line fill="none" stroke="#231F20" stroke-width="12" stroke-linecap="round" stroke-linejoin="round" stroke-miterlimit="10" x1="1454.523" y1="-2380.063" x2="1531.504" y2="-2335.617"/>
					
						<line fill="none" stroke="#231F20" stroke-width="12" stroke-linecap="round" stroke-linejoin="round" stroke-miterlimit="10" x1="1659.805" y1="-2380.063" x2="1582.826" y2="-2335.617"/>
					
						<polyline fill="none" stroke="#231F20" stroke-width="12" stroke-linecap="round" stroke-linejoin="round" stroke-miterlimit="10" points="
						1788.107,-2335.617 1788.107,-2217.1 1685.466,-2157.84 1582.826,-2217.1 1582.826,-2335.617 					"/>
					
						<line fill="none" stroke="#231F20" stroke-width="12" stroke-linecap="round" stroke-linejoin="round" stroke-miterlimit="10" x1="1711.125" y1="-2380.063" x2="1788.107" y2="-2335.617"/>
				</g>
				<g>
					<path d="M1376.293-1960.645h-12.416v-62.482h-80.908v62.482h-12.416v-138.184h12.416v65.086h80.908v-65.086h12.416V-1960.645z"
						/>
					<path d="M1467.811-1979.87l-5.406,11.215c-7.411,7.409-17.825,10.815-29.44,10.815c-19.625,0-33.644-10.214-33.644-29.439
						c0-24.232,23.03-36.049,61.281-36.049h6.81v-3.805c0-4.806,0-8.812-0.401-13.018c-1.001-12.216-8.412-19.226-23.632-19.226
						c-14.619,0-25.033,7.811-26.635,24.232h-13.018c1.401-20.828,17.223-34.245,39.652-34.245
						c23.432,0,34.447,10.614,36.048,28.037c0.401,4.605,0.401,9.012,0.401,14.019v37.049c0,9.413,0.6,17.023,2.002,29.64h-12.416
						L1467.811-1979.87z M1467.412-2013.716c-29.84-2.202-54.474,5.007-54.474,25.436c0,13.417,8.412,20.626,23.833,20.626
						c18.424,0,30.641-14.019,30.641-33.845V-2013.716z"/>
					<path d="M1592.975-1993.688c-4.806,23.431-22.229,35.849-45.059,35.849c-26.437,0-47.064-18.225-47.064-55.675
						c0-35.046,22.632-55.874,49.267-55.874c24.433,0,40.654,15.02,43.858,37.45h-13.018c-3.604-17.824-14.219-27.638-31.242-27.638
						c-17.823,0-35.246,14.419-35.246,45.06c0,32.645,16.422,46.862,34.245,46.862c15.621,0,27.637-9.011,31.441-26.034H1592.975z"
						/>
					<path d="M1627.017-1997.895v37.25h-12.416v-147.195h12.416v96.128l54.273-54.873h16.221l-51.869,50.667l52.271,55.273h-17.224
						l-44.06-47.463L1627.017-1997.895z"/>
					<path d="M1839.296-2032.54v71.896h-24.834l-2.402-21.829l-6.208,14.819c-7.811,7.211-18.024,9.814-33.044,9.814
						c-37.65,0-62.684-26.035-62.684-71.096c0-46.461,31.042-72.696,68.892-72.696c37.851,0,58.878,20.427,61.683,47.463h-31.643
						c-3.204-15.621-13.819-24.232-30.441-24.232c-20.026,0-35.446,17.023-35.446,47.664c0,34.646,15.621,49.666,35.247,49.666
						c16.222,0,27.437-9.413,31.041-27.036h-28.238v-24.433H1839.296z"/>
					<path d="M1926.011-2074.396v113.751h-31.242v-113.751h-46.061v-24.433h123.364v24.433H1926.011z"/>
				</g>
			</g>
		</g>
		<g id="Side_Extended">
			<g>
				<g>
					<polygon fill="#FCD036" points="284.131,-1671.815 335.451,-1701.444 386.772,-1671.815 386.772,-1612.556 335.451,-1582.927 
						284.131,-1612.556 					"/>
					<polygon fill="#FCD036" points="412.434,-1504.573 463.753,-1534.204 515.073,-1504.573 515.073,-1445.315 463.753,-1415.685 
						412.434,-1445.315 					"/>
				</g>
				<g>
					<circle fill="none" stroke="#231F20" stroke-width="4" stroke-miterlimit="10" cx="335.451" cy="-1642.187" r="9.876"/>
					
						<line fill="none" stroke="#231F20" stroke-width="4" stroke-linecap="round" stroke-miterlimit="10" x1="335.451" y1="-1632.31" x2="335.451" y2="-1415.685"/>
					<circle fill="none" stroke="#231F20" stroke-width="4" stroke-miterlimit="10" cx="463.753" cy="-1474.944" r="9.876"/>
					
						<line fill="none" stroke="#231F20" stroke-width="4" stroke-linecap="round" stroke-miterlimit="10" x1="463.753" y1="-1701.444" x2="463.753" y2="-1484.821"/>
				</g>
				<g>
					
						<polyline fill="none" stroke="#231F20" stroke-width="12" stroke-linecap="round" stroke-linejoin="round" stroke-miterlimit="10" points="
						232.81,-1580.787 232.81,-1699.305 335.451,-1758.564 438.092,-1699.305 438.092,-1580.787 					"/>
					
						<line fill="none" stroke="#231F20" stroke-width="12" stroke-linecap="round" stroke-linejoin="round" stroke-miterlimit="10" x1="232.81" y1="-1580.787" x2="309.792" y2="-1536.342"/>
					
						<line fill="none" stroke="#231F20" stroke-width="12" stroke-linecap="round" stroke-linejoin="round" stroke-miterlimit="10" x1="438.092" y1="-1580.787" x2="361.113" y2="-1536.342"/>
					
						<polyline fill="none" stroke="#231F20" stroke-width="12" stroke-linecap="round" stroke-linejoin="round" stroke-miterlimit="10" points="
						566.394,-1536.342 566.394,-1417.824 463.753,-1358.564 361.113,-1417.824 361.113,-1536.342 					"/>
					
						<line fill="none" stroke="#231F20" stroke-width="12" stroke-linecap="round" stroke-linejoin="round" stroke-miterlimit="10" x1="489.413" y1="-1580.787" x2="566.394" y2="-1536.342"/>
				</g>
				<g>
					<path d="M881.958-1414.174h-24.832v-124.965H695.309v124.965h-24.832v-276.367h24.832v130.172h161.816v-130.172h24.832
						V-1414.174z"/>
					<path d="M1064.993-1452.625l-10.813,22.43c-14.822,14.818-35.65,21.631-58.881,21.631c-39.25,0-67.287-20.428-67.287-58.879
						c0-48.465,46.061-72.098,122.563-72.098h13.619v-7.609c0-9.611,0-17.623-0.803-26.035
						c-2.002-24.432-16.824-38.451-47.264-38.451c-29.238,0-50.066,15.621-53.27,48.465h-26.035
						c2.803-41.656,34.445-68.49,79.305-68.49c46.863,0,68.895,21.229,72.096,56.074c0.803,9.211,0.803,18.023,0.803,28.037v74.098
						c0,18.826,1.199,34.047,4.004,59.279h-24.832L1064.993-1452.625z M1064.194-1520.316
						c-59.68-4.404-108.947,10.014-108.947,50.871c0,26.834,16.824,41.252,47.666,41.252c36.848,0,61.281-28.037,61.281-67.689
						V-1520.316z"/>
					<path d="M1315.321-1480.262c-9.611,46.861-44.457,71.697-90.117,71.697c-52.873,0-94.129-36.449-94.129-111.35
						c0-70.092,45.264-111.748,98.533-111.748c48.865,0,81.309,30.039,87.717,74.9h-26.035
						c-7.209-35.648-28.438-55.275-62.484-55.275c-35.646,0-70.492,28.838-70.492,90.119c0,65.289,32.844,93.725,68.49,93.725
						c31.242,0,55.273-18.021,62.883-52.068H1315.321z"/>
					<path d="M1383.405-1488.674v74.5h-24.832v-294.391h24.832v192.256l108.547-109.746h32.441l-103.738,101.334l104.541,110.547
						h-34.447l-88.119-94.926L1383.405-1488.674z"/>
					<path d="M1807.963-1557.965v143.791h-49.668l-4.805-43.658l-12.416,29.639c-15.621,14.422-36.049,19.629-66.088,19.629
						c-75.301,0-125.367-52.07-125.367-142.191c0-92.922,62.084-145.393,137.783-145.393c75.701,0,117.756,40.854,123.365,94.926
						h-63.285c-6.408-31.242-27.639-48.465-60.883-48.465c-40.053,0-70.893,34.047-70.893,95.328
						c0,69.293,31.242,99.332,70.494,99.332c32.443,0,54.873-18.826,62.082-54.072h-56.477v-48.865H1807.963z"/>
					<path d="M1981.393-1641.676v227.502h-62.484v-227.502h-92.121v-48.865h246.729v48.865H1981.393z"/>
				</g>
			</g>
		</g>
		<g id="Solos_1_">
			<g>
				<g>
					<polygon fill="#FCD036" points="323.151,-1141.476 374.47,-1171.104 425.792,-1141.476 425.792,-1082.216 374.47,-1052.586 
						323.151,-1082.216 					"/>
					<polygon fill="#FCD036" points="451.454,-974.232 502.773,-1003.863 554.092,-974.232 554.092,-914.975 502.773,-885.344 
						451.454,-914.975 					"/>
				</g>
				<g>
					<circle fill="none" stroke="#231F20" stroke-width="4" stroke-miterlimit="10" cx="374.471" cy="-1111.847" r="9.876"/>
					
						<line fill="none" stroke="#231F20" stroke-width="4" stroke-linecap="round" stroke-miterlimit="10" x1="374.47" y1="-1101.97" x2="374.47" y2="-885.344"/>
					<circle fill="none" stroke="#231F20" stroke-width="4" stroke-miterlimit="10" cx="502.773" cy="-944.604" r="9.876"/>
					
						<line fill="none" stroke="#231F20" stroke-width="4" stroke-linecap="round" stroke-miterlimit="10" x1="502.773" y1="-1171.104" x2="502.773" y2="-954.48"/>
				</g>
				<g>
					
						<polyline fill="none" stroke="#231F20" stroke-width="12" stroke-linecap="round" stroke-linejoin="round" stroke-miterlimit="10" points="
						271.83,-1050.447 271.83,-1168.965 374.47,-1228.225 477.112,-1168.965 477.112,-1050.447 					"/>
					
						<line fill="none" stroke="#231F20" stroke-width="12" stroke-linecap="round" stroke-linejoin="round" stroke-miterlimit="10" x1="271.83" y1="-1050.447" x2="348.811" y2="-1006.002"/>
					
						<line fill="none" stroke="#231F20" stroke-width="12" stroke-linecap="round" stroke-linejoin="round" stroke-miterlimit="10" x1="477.112" y1="-1050.447" x2="400.132" y2="-1006.002"/>
					
						<polyline fill="none" stroke="#231F20" stroke-width="12" stroke-linecap="round" stroke-linejoin="round" stroke-miterlimit="10" points="
						605.414,-1006.002 605.414,-887.484 502.773,-828.225 400.132,-887.484 400.132,-1006.002 					"/>
					
						<line fill="none" stroke="#231F20" stroke-width="12" stroke-linecap="round" stroke-linejoin="round" stroke-miterlimit="10" x1="528.432" y1="-1050.447" x2="605.414" y2="-1006.002"/>
				</g>
			</g>
			<g>
				<path d="M928.565-896.466h-12.416v-62.482h-80.908v62.482h-12.416v-138.184h12.416v65.086h80.908v-65.086h12.416V-896.466z"/>
				<path d="M1020.083-915.691l-5.406,11.215c-7.411,7.409-17.825,10.815-29.44,10.815c-19.625,0-33.644-10.214-33.644-29.439
					c0-24.232,23.03-36.049,61.281-36.049h6.81v-3.805c0-4.806,0-8.812-0.401-13.018c-1.001-12.216-8.412-19.226-23.632-19.226
					c-14.619,0-25.033,7.811-26.635,24.232h-13.018c1.401-20.828,17.223-34.245,39.652-34.245c23.432,0,34.447,10.614,36.048,28.037
					c0.401,4.605,0.401,9.012,0.401,14.019v37.049c0,9.413,0.6,17.023,2.002,29.64h-12.416L1020.083-915.691z M1019.683-949.537
					c-29.84-2.202-54.474,5.007-54.474,25.436c0,13.417,8.412,20.626,23.833,20.626c18.424,0,30.641-14.019,30.641-33.845V-949.537z
					"/>
				<path d="M1145.247-929.51c-4.806,23.431-22.229,35.849-45.059,35.849c-26.437,0-47.064-18.225-47.064-55.675
					c0-35.046,22.632-55.874,49.267-55.874c24.433,0,40.654,15.02,43.858,37.45h-13.018c-3.604-17.824-14.219-27.638-31.242-27.638
					c-17.823,0-35.246,14.419-35.246,45.06c0,32.645,16.422,46.862,34.245,46.862c15.621,0,27.637-9.011,31.441-26.034H1145.247z"/>
				<path d="M1179.289-933.716v37.25h-12.416v-147.195h12.416v96.128l54.273-54.873h16.221l-51.869,50.667l52.271,55.273h-17.224
					l-44.06-47.463L1179.289-933.716z"/>
				<path d="M1391.568-968.361v71.896h-24.834l-2.402-21.829l-6.208,14.819c-7.811,7.211-18.024,9.814-33.044,9.814
					c-37.65,0-62.684-26.035-62.684-71.096c0-46.461,31.042-72.696,68.892-72.696c37.851,0,58.878,20.427,61.683,47.463h-31.643
					c-3.204-15.621-13.819-24.232-30.441-24.232c-20.026,0-35.446,17.023-35.446,47.664c0,34.646,15.621,49.666,35.247,49.666
					c16.222,0,27.437-9.413,31.041-27.036h-28.238v-24.433H1391.568z"/>
				<path d="M1478.283-1010.217v113.751h-31.242v-113.751h-46.061v-24.433h123.364v24.433H1478.283z"/>
			</g>
		</g>
	</g>
</g>
<g id="Dark">
	<g id="Light_BG_copy">
		<rect x="153.163" y="-2657.84" fill="#242424" width="2000" height="1879.615"/>
	</g>
	<g id="Logos">
		<g id="Side_Stacked_copy">
			<g>
				<g>
					<polygon fill="#AD9D66" points="297.599,-2506.501 348.918,-2536.13 400.24,-2506.501 400.24,-2447.241 348.918,-2417.612 
						297.599,-2447.241 					"/>
					<polygon fill="#AD9D66" points="425.902,-2339.259 477.221,-2368.89 528.541,-2339.259 528.541,-2280.001 477.221,-2250.37 
						425.902,-2280.001 					"/>
				</g>
				<g>
					<circle fill="none" stroke="#FCD036" stroke-width="4" stroke-miterlimit="10" cx="348.919" cy="-2476.872" r="9.876"/>
					
						<line fill="none" stroke="#FCD036" stroke-width="4" stroke-linecap="round" stroke-miterlimit="10" x1="348.918" y1="-2466.995" x2="348.918" y2="-2250.37"/>
					<circle fill="none" stroke="#FCD036" stroke-width="4" stroke-miterlimit="10" cx="477.221" cy="-2309.63" r="9.876"/>
					
						<line fill="none" stroke="#FCD036" stroke-width="4" stroke-linecap="round" stroke-miterlimit="10" x1="477.221" y1="-2536.13" x2="477.221" y2="-2319.507"/>
				</g>
				<g>
					
						<polyline fill="none" stroke="#FCD036" stroke-width="12" stroke-linecap="round" stroke-linejoin="round" stroke-miterlimit="10" points="
						246.278,-2415.473 246.278,-2533.991 348.918,-2593.25 451.56,-2533.991 451.56,-2415.473 					"/>
					
						<line fill="none" stroke="#FCD036" stroke-width="12" stroke-linecap="round" stroke-linejoin="round" stroke-miterlimit="10" x1="246.278" y1="-2415.473" x2="323.259" y2="-2371.028"/>
					
						<line fill="none" stroke="#FCD036" stroke-width="12" stroke-linecap="round" stroke-linejoin="round" stroke-miterlimit="10" x1="451.56" y1="-2415.473" x2="374.581" y2="-2371.028"/>
					
						<polyline fill="none" stroke="#FCD036" stroke-width="12" stroke-linecap="round" stroke-linejoin="round" stroke-miterlimit="10" points="
						579.862,-2371.028 579.862,-2252.51 477.221,-2193.25 374.581,-2252.51 374.581,-2371.028 					"/>
					
						<line fill="none" stroke="#FCD036" stroke-width="12" stroke-linecap="round" stroke-linejoin="round" stroke-miterlimit="10" x1="502.88" y1="-2415.473" x2="579.862" y2="-2371.028"/>
				</g>
				<g>
					<g>
						<path fill="#FAB22C" d="M675.708-2408.15h-12.418v-62.484h-80.908v62.484h-12.415v-138.186h12.415v65.088h80.908v-65.088
							h12.418V-2408.15z"/>
						<path fill="#FAB22C" d="M767.225-2427.377l-5.405,11.217c-7.411,7.408-17.826,10.814-29.438,10.814
							c-19.629,0-33.648-10.213-33.648-29.439c0-24.232,23.031-36.049,61.283-36.049h6.81v-3.807c0-4.805,0-8.811-0.401-13.016
							c-1.001-12.215-8.411-19.227-23.633-19.227c-14.619,0-25.031,7.811-26.636,24.232H703.14
							c1.4-20.828,17.224-34.244,39.652-34.244c23.433,0,34.446,10.613,36.05,28.037c0.399,4.605,0.399,9.01,0.399,14.018v37.049
							c0,9.414,0.601,17.025,2.003,29.641h-12.416L767.225-2427.377z M766.827-2461.223c-29.841-2.201-54.475,5.01-54.475,25.436
							c0,13.418,8.414,20.625,23.834,20.625c18.424,0,30.641-14.018,30.641-33.844V-2461.223z"/>
						<path fill="#FAB22C" d="M892.392-2441.193c-4.809,23.432-22.231,35.848-45.061,35.848c-26.437,0-47.063-18.225-47.063-55.674
							c0-35.049,22.629-55.875,49.265-55.875c24.434,0,40.654,15.02,43.86,37.449h-13.019
							c-3.605-17.824-14.219-27.637-31.242-27.637c-17.825,0-35.246,14.418-35.246,45.059c0,32.645,16.421,46.861,34.243,46.861
							c15.622,0,27.638-9.01,31.442-26.031H892.392z"/>
						<path fill="#FAB22C" d="M926.432-2445.402v37.252h-12.416v-147.197h12.416v96.129l54.273-54.873h16.222l-51.871,50.668
							l52.271,55.273h-17.224l-44.059-47.463L926.432-2445.402z"/>
					</g>
					<g>
						<path fill="#FAB22C" d="M788.342-2309.076v74.998h-25.905l-2.507-22.77l-6.477,15.459c-8.147,7.52-18.802,10.236-34.47,10.236
							c-39.277,0-65.391-27.16-65.391-74.162c0-48.469,32.383-75.838,71.865-75.838c39.486,0,61.422,21.309,64.346,49.516h-33.008
							c-3.343-16.297-14.415-25.281-31.755-25.281c-20.892,0-36.978,17.756-36.978,49.721c0,36.143,16.297,51.811,36.77,51.811
							c16.922,0,28.62-9.816,32.381-28.201h-29.457v-25.488H788.342z"/>
						<path fill="#FAB22C" d="M878.801-2352.738v118.66H846.21v-118.66h-48.05v-25.488h128.69v25.488H878.801z"/>
					</g>
				</g>
			</g>
		</g>
		<g id="Centered_copy">
			<g>
				<g>
					<polygon fill="#AD9D66" points="1505.844,-2471.091 1557.164,-2500.72 1608.485,-2471.091 1608.485,-2411.831 
						1557.164,-2382.201 1505.844,-2411.831 					"/>
					<polygon fill="#AD9D66" points="1634.147,-2303.848 1685.466,-2333.479 1736.786,-2303.848 1736.786,-2244.59 
						1685.466,-2214.959 1634.147,-2244.59 					"/>
				</g>
				<g>
					<circle fill="none" stroke="#FCD036" stroke-width="4" stroke-miterlimit="10" cx="1557.164" cy="-2441.462" r="9.876"/>
					
						<line fill="none" stroke="#FCD036" stroke-width="4" stroke-linecap="round" stroke-miterlimit="10" x1="1557.164" y1="-2431.585" x2="1557.164" y2="-2214.959"/>
					<circle fill="none" stroke="#FCD036" stroke-width="4" stroke-miterlimit="10" cx="1685.466" cy="-2274.219" r="9.876"/>
					
						<line fill="none" stroke="#FCD036" stroke-width="4" stroke-linecap="round" stroke-miterlimit="10" x1="1685.466" y1="-2500.72" x2="1685.466" y2="-2284.096"/>
				</g>
				<g>
					
						<polyline fill="none" stroke="#FCD036" stroke-width="12" stroke-linecap="round" stroke-linejoin="round" stroke-miterlimit="10" points="
						1454.523,-2380.063 1454.523,-2498.581 1557.164,-2557.84 1659.805,-2498.581 1659.805,-2380.063 					"/>
					
						<line fill="none" stroke="#FCD036" stroke-width="12" stroke-linecap="round" stroke-linejoin="round" stroke-miterlimit="10" x1="1454.523" y1="-2380.063" x2="1531.504" y2="-2335.617"/>
					
						<line fill="none" stroke="#FCD036" stroke-width="12" stroke-linecap="round" stroke-linejoin="round" stroke-miterlimit="10" x1="1659.805" y1="-2380.063" x2="1582.826" y2="-2335.617"/>
					
						<polyline fill="none" stroke="#FCD036" stroke-width="12" stroke-linecap="round" stroke-linejoin="round" stroke-miterlimit="10" points="
						1788.107,-2335.617 1788.107,-2217.1 1685.466,-2157.84 1582.826,-2217.1 1582.826,-2335.617 					"/>
					
						<line fill="none" stroke="#FCD036" stroke-width="12" stroke-linecap="round" stroke-linejoin="round" stroke-miterlimit="10" x1="1711.125" y1="-2380.063" x2="1788.107" y2="-2335.617"/>
				</g>
				<g>
					<path fill="#FAB22C" d="M1376.293-1960.645h-12.416v-62.482h-80.908v62.482h-12.416v-138.184h12.416v65.086h80.908v-65.086
						h12.416V-1960.645z"/>
					<path fill="#FAB22C" d="M1467.811-1979.87l-5.406,11.215c-7.411,7.409-17.825,10.815-29.44,10.815
						c-19.625,0-33.644-10.214-33.644-29.439c0-24.232,23.03-36.049,61.281-36.049h6.81v-3.805c0-4.806,0-8.812-0.401-13.018
						c-1.001-12.216-8.412-19.226-23.632-19.226c-14.619,0-25.033,7.811-26.635,24.232h-13.018
						c1.401-20.828,17.223-34.245,39.652-34.245c23.432,0,34.447,10.614,36.048,28.037c0.401,4.605,0.401,9.012,0.401,14.019v37.049
						c0,9.413,0.6,17.023,2.002,29.64h-12.416L1467.811-1979.87z M1467.412-2013.716c-29.84-2.202-54.474,5.007-54.474,25.436
						c0,13.417,8.412,20.626,23.833,20.626c18.424,0,30.641-14.019,30.641-33.845V-2013.716z"/>
					<path fill="#FAB22C" d="M1592.975-1993.688c-4.806,23.431-22.229,35.849-45.059,35.849c-26.437,0-47.064-18.225-47.064-55.675
						c0-35.046,22.632-55.874,49.267-55.874c24.433,0,40.654,15.02,43.858,37.45h-13.018c-3.604-17.824-14.219-27.638-31.242-27.638
						c-17.823,0-35.246,14.419-35.246,45.06c0,32.645,16.422,46.862,34.245,46.862c15.621,0,27.637-9.011,31.441-26.034H1592.975z"
						/>
					<path fill="#FAB22C" d="M1627.017-1997.895v37.25h-12.416v-147.195h12.416v96.128l54.273-54.873h16.221l-51.869,50.667
						l52.271,55.273h-17.224l-44.06-47.463L1627.017-1997.895z"/>
					<path fill="#FAB22C" d="M1839.296-2032.54v71.896h-24.834l-2.402-21.829l-6.208,14.819c-7.811,7.211-18.024,9.814-33.044,9.814
						c-37.65,0-62.684-26.035-62.684-71.096c0-46.461,31.042-72.696,68.892-72.696c37.851,0,58.878,20.427,61.683,47.463h-31.643
						c-3.204-15.621-13.819-24.232-30.441-24.232c-20.026,0-35.446,17.023-35.446,47.664c0,34.646,15.621,49.666,35.247,49.666
						c16.222,0,27.437-9.413,31.041-27.036h-28.238v-24.433H1839.296z"/>
					<path fill="#FAB22C" d="M1926.011-2074.396v113.751h-31.242v-113.751h-46.061v-24.433h123.364v24.433H1926.011z"/>
				</g>
			</g>
		</g>
		<g id="Side_Extended_copy">
			<g>
				<g>
					<polygon fill="#AD9D66" points="284.131,-1671.815 335.451,-1701.444 386.772,-1671.815 386.772,-1612.556 335.451,-1582.927 
						284.131,-1612.556 					"/>
					<polygon fill="#AD9D66" points="412.434,-1504.573 463.753,-1534.204 515.073,-1504.573 515.073,-1445.315 463.753,-1415.685 
						412.434,-1445.315 					"/>
				</g>
				<g>
					<circle fill="none" stroke="#FCD036" stroke-width="4" stroke-miterlimit="10" cx="335.451" cy="-1642.187" r="9.876"/>
					
						<line fill="none" stroke="#FCD036" stroke-width="4" stroke-linecap="round" stroke-miterlimit="10" x1="335.451" y1="-1632.31" x2="335.451" y2="-1415.685"/>
					<circle fill="none" stroke="#FCD036" stroke-width="4" stroke-miterlimit="10" cx="463.753" cy="-1474.944" r="9.876"/>
					
						<line fill="none" stroke="#FCD036" stroke-width="4" stroke-linecap="round" stroke-miterlimit="10" x1="463.753" y1="-1701.444" x2="463.753" y2="-1484.821"/>
				</g>
				<g>
					
						<polyline fill="none" stroke="#FCD036" stroke-width="12" stroke-linecap="round" stroke-linejoin="round" stroke-miterlimit="10" points="
						232.81,-1580.787 232.81,-1699.305 335.451,-1758.564 438.092,-1699.305 438.092,-1580.787 					"/>
					
						<line fill="none" stroke="#FCD036" stroke-width="12" stroke-linecap="round" stroke-linejoin="round" stroke-miterlimit="10" x1="232.81" y1="-1580.787" x2="309.792" y2="-1536.342"/>
					
						<line fill="none" stroke="#FCD036" stroke-width="12" stroke-linecap="round" stroke-linejoin="round" stroke-miterlimit="10" x1="438.092" y1="-1580.787" x2="361.113" y2="-1536.342"/>
					
						<polyline fill="none" stroke="#FCD036" stroke-width="12" stroke-linecap="round" stroke-linejoin="round" stroke-miterlimit="10" points="
						566.394,-1536.342 566.394,-1417.824 463.753,-1358.564 361.113,-1417.824 361.113,-1536.342 					"/>
					
						<line fill="none" stroke="#FCD036" stroke-width="12" stroke-linecap="round" stroke-linejoin="round" stroke-miterlimit="10" x1="489.413" y1="-1580.787" x2="566.394" y2="-1536.342"/>
				</g>
				<g>
					<path fill="#FAB22C" d="M881.958-1414.174h-24.832v-124.965H695.309v124.965h-24.832v-276.367h24.832v130.172h161.816v-130.172
						h24.832V-1414.174z"/>
					<path fill="#FAB22C" d="M1064.993-1452.625l-10.813,22.43c-14.822,14.818-35.65,21.631-58.881,21.631
						c-39.25,0-67.287-20.428-67.287-58.879c0-48.465,46.061-72.098,122.563-72.098h13.619v-7.609c0-9.611,0-17.623-0.803-26.035
						c-2.002-24.432-16.824-38.451-47.264-38.451c-29.238,0-50.066,15.621-53.27,48.465h-26.035
						c2.803-41.656,34.445-68.49,79.305-68.49c46.863,0,68.895,21.229,72.096,56.074c0.803,9.211,0.803,18.023,0.803,28.037v74.098
						c0,18.826,1.199,34.047,4.004,59.279h-24.832L1064.993-1452.625z M1064.194-1520.316
						c-59.68-4.404-108.947,10.014-108.947,50.871c0,26.834,16.824,41.252,47.666,41.252c36.848,0,61.281-28.037,61.281-67.689
						V-1520.316z"/>
					<path fill="#FAB22C" d="M1315.321-1480.262c-9.611,46.861-44.457,71.697-90.117,71.697c-52.873,0-94.129-36.449-94.129-111.35
						c0-70.092,45.264-111.748,98.533-111.748c48.865,0,81.309,30.039,87.717,74.9h-26.035
						c-7.209-35.648-28.438-55.275-62.484-55.275c-35.646,0-70.492,28.838-70.492,90.119c0,65.289,32.844,93.725,68.49,93.725
						c31.242,0,55.273-18.021,62.883-52.068H1315.321z"/>
					<path fill="#FAB22C" d="M1383.405-1488.674v74.5h-24.832v-294.391h24.832v192.256l108.547-109.746h32.441l-103.738,101.334
						l104.541,110.547h-34.447l-88.119-94.926L1383.405-1488.674z"/>
					<path fill="#FAB22C" d="M1807.963-1557.965v143.791h-49.668l-4.805-43.658l-12.416,29.639
						c-15.621,14.422-36.049,19.629-66.088,19.629c-75.301,0-125.367-52.07-125.367-142.191
						c0-92.922,62.084-145.393,137.783-145.393c75.701,0,117.756,40.854,123.365,94.926h-63.285
						c-6.408-31.242-27.639-48.465-60.883-48.465c-40.053,0-70.893,34.047-70.893,95.328c0,69.293,31.242,99.332,70.494,99.332
						c32.443,0,54.873-18.826,62.082-54.072h-56.477v-48.865H1807.963z"/>
					<path fill="#FAB22C" d="M1981.393-1641.676v227.502h-62.484v-227.502h-92.121v-48.865h246.729v48.865H1981.393z"/>
				</g>
			</g>
		</g>
		<g id="Solos">
			<g>
				<g>
					<polygon fill="#AD9D66" points="323.151,-1141.476 374.47,-1171.104 425.792,-1141.476 425.792,-1082.216 374.47,-1052.586 
						323.151,-1082.216 					"/>
					<polygon fill="#AD9D66" points="451.454,-974.232 502.773,-1003.863 554.092,-974.232 554.092,-914.975 502.773,-885.344 
						451.454,-914.975 					"/>
				</g>
				<g>
					<circle fill="none" stroke="#FCD036" stroke-width="4" stroke-miterlimit="10" cx="374.471" cy="-1111.847" r="9.876"/>
					
						<line fill="none" stroke="#FCD036" stroke-width="4" stroke-linecap="round" stroke-miterlimit="10" x1="374.47" y1="-1101.97" x2="374.47" y2="-885.344"/>
					<circle fill="none" stroke="#FCD036" stroke-width="4" stroke-miterlimit="10" cx="502.773" cy="-944.604" r="9.876"/>
					
						<line fill="none" stroke="#FCD036" stroke-width="4" stroke-linecap="round" stroke-miterlimit="10" x1="502.773" y1="-1171.104" x2="502.773" y2="-954.48"/>
				</g>
				<g>
					
						<polyline fill="none" stroke="#FCD036" stroke-width="12" stroke-linecap="round" stroke-linejoin="round" stroke-miterlimit="10" points="
						271.83,-1050.447 271.83,-1168.965 374.47,-1228.225 477.112,-1168.965 477.112,-1050.447 					"/>
					
						<line fill="none" stroke="#FCD036" stroke-width="12" stroke-linecap="round" stroke-linejoin="round" stroke-miterlimit="10" x1="271.83" y1="-1050.447" x2="348.811" y2="-1006.002"/>
					
						<line fill="none" stroke="#FCD036" stroke-width="12" stroke-linecap="round" stroke-linejoin="round" stroke-miterlimit="10" x1="477.112" y1="-1050.447" x2="400.132" y2="-1006.002"/>
					
						<polyline fill="none" stroke="#FCD036" stroke-width="12" stroke-linecap="round" stroke-linejoin="round" stroke-miterlimit="10" points="
						605.414,-1006.002 605.414,-887.484 502.773,-828.225 400.132,-887.484 400.132,-1006.002 					"/>
					
						<line fill="none" stroke="#FCD036" stroke-width="12" stroke-linecap="round" stroke-linejoin="round" stroke-miterlimit="10" x1="528.432" y1="-1050.447" x2="605.414" y2="-1006.002"/>
				</g>
			</g>
			<g>
				<path fill="#FAB22C" d="M928.565-896.466h-12.416v-62.482h-80.908v62.482h-12.416v-138.184h12.416v65.086h80.908v-65.086h12.416
					V-896.466z"/>
				<path fill="#FAB22C" d="M1020.083-915.691l-5.406,11.215c-7.411,7.409-17.825,10.815-29.44,10.815
					c-19.625,0-33.644-10.214-33.644-29.439c0-24.232,23.03-36.049,61.281-36.049h6.81v-3.805c0-4.806,0-8.812-0.401-13.018
					c-1.001-12.216-8.412-19.226-23.632-19.226c-14.619,0-25.033,7.811-26.635,24.232h-13.018
					c1.401-20.828,17.223-34.245,39.652-34.245c23.432,0,34.447,10.614,36.048,28.037c0.401,4.605,0.401,9.012,0.401,14.019v37.049
					c0,9.413,0.6,17.023,2.002,29.64h-12.416L1020.083-915.691z M1019.683-949.537c-29.84-2.202-54.474,5.007-54.474,25.436
					c0,13.417,8.412,20.626,23.833,20.626c18.424,0,30.641-14.019,30.641-33.845V-949.537z"/>
				<path fill="#FAB22C" d="M1145.247-929.51c-4.806,23.431-22.229,35.849-45.059,35.849c-26.437,0-47.064-18.225-47.064-55.675
					c0-35.046,22.632-55.874,49.267-55.874c24.433,0,40.654,15.02,43.858,37.45h-13.018c-3.604-17.824-14.219-27.638-31.242-27.638
					c-17.823,0-35.246,14.419-35.246,45.06c0,32.645,16.422,46.862,34.245,46.862c15.621,0,27.637-9.011,31.441-26.034H1145.247z"/>
				<path fill="#FAB22C" d="M1179.289-933.716v37.25h-12.416v-147.195h12.416v96.128l54.273-54.873h16.221l-51.869,50.667
					l52.271,55.273h-17.224l-44.06-47.463L1179.289-933.716z"/>
				<path fill="#FAB22C" d="M1391.568-968.361v71.896h-24.834l-2.402-21.829l-6.208,14.819c-7.811,7.211-18.024,9.814-33.044,9.814
					c-37.65,0-62.684-26.035-62.684-71.096c0-46.461,31.042-72.696,68.892-72.696c37.851,0,58.878,20.427,61.683,47.463h-31.643
					c-3.204-15.621-13.819-24.232-30.441-24.232c-20.026,0-35.446,17.023-35.446,47.664c0,34.646,15.621,49.666,35.247,49.666
					c16.222,0,27.437-9.413,31.041-27.036h-28.238v-24.433H1391.568z"/>
				<path fill="#FAB22C" d="M1478.283-1010.217v113.751h-31.242v-113.751h-46.061v-24.433h123.364v24.433H1478.283z"/>
			</g>
		</g>
	</g>
</g>
<g id="Final_Dark">
	<g>
		<polygon fill="#AD9D66" points="296.963,-512.313 348.283,-541.941 399.604,-512.313 399.604,-453.053 348.283,-423.424 
			296.963,-453.053 		"/>
		<polygon fill="#AD9D66" points="425.266,-345.07 476.585,-374.701 527.905,-345.07 527.905,-285.813 476.585,-256.182 
			425.266,-285.813 		"/>
	</g>
	<g>
		<circle fill="none" stroke="#FCD036" stroke-width="4" stroke-miterlimit="10" cx="348.283" cy="-482.684" r="9.876"/>
		
			<line fill="none" stroke="#FCD036" stroke-width="4" stroke-linecap="round" stroke-miterlimit="10" x1="348.283" y1="-472.807" x2="348.283" y2="-256.182"/>
		<circle fill="none" stroke="#FCD036" stroke-width="4" stroke-miterlimit="10" cx="476.585" cy="-315.441" r="9.876"/>
		
			<line fill="none" stroke="#FCD036" stroke-width="4" stroke-linecap="round" stroke-miterlimit="10" x1="476.585" y1="-541.941" x2="476.585" y2="-325.318"/>
	</g>
	<g>
		
			<polyline fill="none" stroke="#FCD036" stroke-width="12" stroke-linecap="round" stroke-linejoin="round" stroke-miterlimit="10" points="
			245.642,-421.284 245.642,-539.802 348.283,-599.062 450.924,-539.802 450.924,-421.284 		"/>
		
			<line fill="none" stroke="#FCD036" stroke-width="12" stroke-linecap="round" stroke-linejoin="round" stroke-miterlimit="10" x1="245.642" y1="-421.284" x2="322.624" y2="-376.839"/>
		
			<line fill="none" stroke="#FCD036" stroke-width="12" stroke-linecap="round" stroke-linejoin="round" stroke-miterlimit="10" x1="450.924" y1="-421.284" x2="373.945" y2="-376.839"/>
		
			<polyline fill="none" stroke="#FCD036" stroke-width="12" stroke-linecap="round" stroke-linejoin="round" stroke-miterlimit="10" points="
			579.226,-376.839 579.226,-258.321 476.585,-199.062 373.945,-258.321 373.945,-376.839 		"/>
		
			<line fill="none" stroke="#FCD036" stroke-width="12" stroke-linecap="round" stroke-linejoin="round" stroke-miterlimit="10" x1="502.245" y1="-421.284" x2="579.226" y2="-376.839"/>
	</g>
	<g>
		<path fill="#FCD036" d="M712.564-326.144v-66.251h-74.338v66.251h-9v-145.836h9v69.375h74.338v-69.375h9.001v145.836H712.564z"/>
		<path fill="#FCD036" d="M744.87-326.144h-6.33l36.565-80.817h7.064l36.735,80.817h-7.064l-11.981-27.128h-33.966l2.317-5.087
			h29.444l-19.385-43.968L744.87-326.144z"/>
		<path fill="#FCD036" d="M892.092-328.97c-7.348,2.261-14.884,3.392-22.606,3.392c-28.258,0-42.387-14.036-42.387-42.105
			c0-26.562,14.129-39.843,42.387-39.843c7.723,0,15.259,1.13,22.606,3.391v5.087c-7.348-2.261-14.506-3.392-21.477-3.392
			c-25.056,0-37.582,11.586-37.582,34.757c0,24.678,12.526,37.018,37.582,37.018c6.971,0,14.129-1.13,21.477-3.391V-328.97z"/>
		<path fill="#FCD036" d="M915.264-406.961v80.817h-5.936v-80.817H915.264z M970.706-406.961L932.217-368.7l39.844,42.557h-8.873
			l-36.904-40.579v-3.504l36.283-36.734H970.706z"/>
		<path fill="#FCD036" d="M1117.298-410.521c1.042,0,1.876,0.833,1.876,1.667v81.668c0,0.833-0.834,1.667-1.876,1.667h-20.833
			c-1.041,0-2.084-0.624-2.084-1.459l-0.832-13.54c-10,11.458-22.709,16.457-38.959,16.457c-39.375,0-70.209-27.292-70.209-75.002
			c0-43.333,32.918-74.998,73.335-74.998c20.416,0,38.749,8.124,51.666,21.458c0.834,0.625,0.834,1.875,0,2.499l-16.667,16.669
			c-0.832,0.625-2.084,0.625-2.707,0c-8.334-8.334-19.793-13.544-32.292-13.544c-25.001,0-45.418,17.709-45.418,47.916
			c0,33.542,20.417,47.92,45.418,47.92c13.333,0,24.999-5.835,33.542-15.209v-18.961h-23.543c-1.25,0-2.082-0.624-2.082-1.457
			v-22.084c0-0.834,0.832-1.667,2.082-1.667H1117.298z"/>
		<path fill="#FCD036" d="M1172.3-446.979h-46.249v-25c42.083,0,77.709,0,120.001,0v25h-46.251v120.836H1172.3V-446.979z"/>
	</g>
	<g>
		<polygon fill="#AD9D66" points="284.529,186.749 335.849,157.12 387.17,186.749 387.17,246.009 335.849,275.638 284.529,246.009 
					"/>
		<polygon fill="#AD9D66" points="412.832,353.991 464.151,324.36 515.471,353.991 515.471,413.249 464.151,442.88 412.832,413.249 
					"/>
	</g>
	<g>
		<circle fill="none" stroke="#FCD036" stroke-width="4" stroke-miterlimit="10" cx="335.85" cy="216.378" r="9.876"/>
		
			<line fill="none" stroke="#FCD036" stroke-width="4" stroke-linecap="round" stroke-miterlimit="10" x1="335.849" y1="226.255" x2="335.849" y2="442.88"/>
		<circle fill="none" stroke="#FCD036" stroke-width="4" stroke-miterlimit="10" cx="464.152" cy="383.62" r="9.876"/>
		
			<line fill="none" stroke="#FCD036" stroke-width="4" stroke-linecap="round" stroke-miterlimit="10" x1="464.152" y1="157.12" x2="464.152" y2="373.743"/>
	</g>
	<g>
		
			<polyline fill="none" stroke="#FCD036" stroke-width="12" stroke-linecap="round" stroke-linejoin="round" stroke-miterlimit="10" points="
			233.208,277.777 233.208,159.26 335.849,100 438.491,159.26 438.491,277.777 		"/>
		
			<line fill="none" stroke="#FCD036" stroke-width="12" stroke-linecap="round" stroke-linejoin="round" stroke-miterlimit="10" x1="233.208" y1="277.777" x2="310.19" y2="322.223"/>
		
			<line fill="none" stroke="#FCD036" stroke-width="12" stroke-linecap="round" stroke-linejoin="round" stroke-miterlimit="10" x1="438.491" y1="277.777" x2="361.511" y2="322.223"/>
		
			<polyline fill="none" stroke="#FCD036" stroke-width="12" stroke-linecap="round" stroke-linejoin="round" stroke-miterlimit="10" points="
			566.792,322.223 566.792,440.74 464.152,500 361.511,440.74 361.511,322.223 		"/>
		
			<line fill="none" stroke="#FCD036" stroke-width="12" stroke-linecap="round" stroke-linejoin="round" stroke-miterlimit="10" x1="489.811" y1="277.777" x2="566.792" y2="322.223"/>
	</g>
	<g>
		<path fill="#FCD036" d="M174.924,697.918v-66.251h-74.338v66.251h-9V552.082h9v69.375h74.338v-69.375h9.002v145.836H174.924z"/>
		<path fill="#FCD036" d="M207.231,697.918h-6.33l36.564-80.817h7.064l36.736,80.817h-7.064l-11.982-27.128h-33.965l2.316-5.087
			h29.445l-19.385-43.968L207.231,697.918z"/>
		<path fill="#FCD036" d="M354.454,695.092c-7.348,2.261-14.885,3.392-22.607,3.392c-28.258,0-42.387-14.036-42.387-42.105
			c0-26.562,14.129-39.843,42.387-39.843c7.723,0,15.26,1.13,22.607,3.391v5.087c-7.348-2.261-14.506-3.392-21.477-3.392
			c-25.057,0-37.582,11.586-37.582,34.757c0,24.678,12.525,37.018,37.582,37.018c6.971,0,14.129-1.13,21.477-3.391V695.092z"/>
		<path fill="#FCD036" d="M377.625,617.101v80.817h-5.936v-80.817H377.625z M433.067,617.101l-38.488,38.261l39.844,42.557h-8.873
			l-36.904-40.579v-3.504l36.283-36.734H433.067z"/>
		<path fill="#FCD036" d="M579.659,613.54c1.043,0,1.877,0.833,1.877,1.667v81.668c0,0.833-0.834,1.667-1.877,1.667h-20.832
			c-1.041,0-2.084-0.624-2.084-1.459l-0.832-13.54c-10,11.458-22.709,16.457-38.959,16.457c-39.375,0-70.209-27.292-70.209-75.002
			c0-43.333,32.918-74.998,73.334-74.998c20.416,0,38.75,8.124,51.666,21.458c0.834,0.625,0.834,1.875,0,2.499l-16.666,16.669
			c-0.832,0.625-2.084,0.625-2.707,0c-8.334-8.334-19.793-13.544-32.293-13.544c-25,0-45.418,17.709-45.418,47.916
			c0,33.542,20.418,47.92,45.418,47.92c13.334,0,25-5.835,33.543-15.209v-18.961h-23.543c-1.25,0-2.082-0.624-2.082-1.457v-22.084
			c0-0.834,0.832-1.667,2.082-1.667H579.659z"/>
		<path fill="#FCD036" d="M634.661,577.082h-46.248v-25c42.082,0,77.709,0,120,0v25h-46.25v120.836h-27.502V577.082z"/>
	</g>
	<g>
		<polygon fill="#AD9D66" points="1033.365,144.985 1084.683,115.356 1136.005,144.985 1136.005,204.245 1084.683,233.874 
			1033.365,204.245 		"/>
		<polygon fill="#AD9D66" points="1161.667,312.228 1212.986,282.597 1264.306,312.228 1264.306,371.485 1212.986,401.116 
			1161.667,371.485 		"/>
	</g>
	<g>
		<circle fill="none" stroke="#FCD036" stroke-width="4" stroke-miterlimit="10" cx="1084.685" cy="174.614" r="9.876"/>
		
			<line fill="none" stroke="#FCD036" stroke-width="4" stroke-linecap="round" stroke-miterlimit="10" x1="1084.684" y1="184.491" x2="1084.684" y2="401.116"/>
		<circle fill="none" stroke="#FCD036" stroke-width="4" stroke-miterlimit="10" cx="1212.987" cy="341.856" r="9.876"/>
		
			<line fill="none" stroke="#FCD036" stroke-width="4" stroke-linecap="round" stroke-miterlimit="10" x1="1212.987" y1="115.356" x2="1212.987" y2="331.979"/>
	</g>
	<g>
		
			<polyline fill="none" stroke="#FCD036" stroke-width="12" stroke-linecap="round" stroke-linejoin="round" stroke-miterlimit="10" points="
			982.043,236.014 982.043,117.496 1084.684,58.236 1187.327,117.496 1187.327,236.014 		"/>
		
			<line fill="none" stroke="#FCD036" stroke-width="12" stroke-linecap="round" stroke-linejoin="round" stroke-miterlimit="10" x1="982.043" y1="236.014" x2="1059.026" y2="280.459"/>
		
			<line fill="none" stroke="#FCD036" stroke-width="12" stroke-linecap="round" stroke-linejoin="round" stroke-miterlimit="10" x1="1187.327" y1="236.014" x2="1110.346" y2="280.459"/>
		
			<polyline fill="none" stroke="#FCD036" stroke-width="12" stroke-linecap="round" stroke-linejoin="round" stroke-miterlimit="10" points="
			1315.627,280.459 1315.627,398.977 1212.987,458.236 1110.346,398.977 1110.346,280.459 		"/>
		
			<line fill="none" stroke="#FCD036" stroke-width="12" stroke-linecap="round" stroke-linejoin="round" stroke-miterlimit="10" x1="1238.647" y1="236.014" x2="1315.627" y2="280.459"/>
	</g>
	<g>
		<path fill="#FCD036" d="M1091.752,792.855v-66.251h-74.338v66.251h-9V647.02h9v69.375h74.338V647.02h9.002v145.836H1091.752z"/>
		<path fill="#FCD036" d="M1124.059,792.855h-6.33l36.564-80.817h7.064l36.736,80.817h-7.064l-11.982-27.128h-33.965l2.316-5.087
			h29.445l-19.385-43.968L1124.059,792.855z"/>
		<path fill="#FCD036" d="M1271.282,790.029c-7.348,2.261-14.885,3.392-22.607,3.392c-28.258,0-42.387-14.036-42.387-42.105
			c0-26.562,14.129-39.843,42.387-39.843c7.723,0,15.26,1.13,22.607,3.391v5.087c-7.348-2.261-14.506-3.392-21.477-3.392
			c-25.057,0-37.582,11.586-37.582,34.757c0,24.678,12.525,37.018,37.582,37.018c6.971,0,14.129-1.13,21.477-3.391V790.029z"/>
		<path fill="#FCD036" d="M1294.454,712.038v80.817h-5.936v-80.817H1294.454z M1349.895,712.038l-38.488,38.261l39.844,42.557
			h-8.873l-36.904-40.579v-3.504l36.283-36.734H1349.895z"/>
		<path fill="#FCD036" d="M1496.487,708.478c1.043,0,1.877,0.833,1.877,1.667v81.668c0,0.833-0.834,1.667-1.877,1.667h-20.832
			c-1.041,0-2.084-0.624-2.084-1.459l-0.832-13.54c-10,11.458-22.709,16.457-38.959,16.457c-39.375,0-70.209-27.292-70.209-75.002
			c0-43.333,32.918-74.998,73.334-74.998c20.416,0,38.75,8.124,51.666,21.458c0.834,0.625,0.834,1.875,0,2.499l-16.666,16.669
			c-0.832,0.625-2.084,0.625-2.707,0c-8.334-8.334-19.793-13.544-32.293-13.544c-25,0-45.418,17.709-45.418,47.916
			c0,33.542,20.418,47.92,45.418,47.92c13.334,0,25-5.835,33.543-15.209v-18.961h-23.543c-1.25,0-2.082-0.624-2.082-1.457v-22.084
			c0-0.834,0.832-1.667,2.082-1.667H1496.487z"/>
		<path fill="#FCD036" d="M1551.489,672.02h-46.248v-25c42.082,0,77.709,0,120,0v25h-46.25v120.836h-27.502V672.02z"/>
	</g>
</g>
<g id="Mitt_Romney" display="none">
	<g id="Light_BG_copy_2">
		<rect x="153.163" y="-2657.84" display="inline" fill="#242424" width="2000" height="1879.615"/>
	</g>
	<g display="inline">
		<g>
			<polygon fill="none" stroke="#FFFFFF" stroke-width="3" stroke-miterlimit="10" points="1505.844,-2471.091 1557.164,-2500.72 
				1608.485,-2471.091 1608.485,-2411.831 1557.164,-2382.201 1505.844,-2411.831 			"/>
			<polygon fill="none" stroke="#FFFFFF" stroke-width="3" stroke-miterlimit="10" points="1634.147,-2303.848 1685.466,-2333.479 
				1736.786,-2303.848 1736.786,-2244.59 1685.466,-2214.959 1634.147,-2244.59 			"/>
		</g>
		<g>
			<circle fill="none" stroke="#FFFFFF" stroke-width="4" stroke-miterlimit="10" cx="1557.164" cy="-2441.462" r="9.876"/>
			
				<line fill="none" stroke="#FFFFFF" stroke-width="4" stroke-linecap="round" stroke-miterlimit="10" x1="1557.164" y1="-2431.585" x2="1557.164" y2="-2214.959"/>
			<circle fill="none" stroke="#FFFFFF" stroke-width="4" stroke-miterlimit="10" cx="1685.466" cy="-2274.219" r="9.876"/>
			
				<line fill="none" stroke="#FFFFFF" stroke-width="4" stroke-linecap="round" stroke-miterlimit="10" x1="1685.466" y1="-2500.72" x2="1685.466" y2="-2284.096"/>
		</g>
		<g>
			
				<polyline fill="none" stroke="#FFFFFF" stroke-width="12" stroke-linecap="round" stroke-linejoin="round" stroke-miterlimit="10" points="
				1454.523,-2380.063 1454.523,-2498.581 1557.164,-2557.84 1659.805,-2498.581 1659.805,-2380.063 			"/>
			
				<line fill="none" stroke="#FFFFFF" stroke-width="12" stroke-linecap="round" stroke-linejoin="round" stroke-miterlimit="10" x1="1454.523" y1="-2380.063" x2="1531.504" y2="-2335.617"/>
			
				<line fill="none" stroke="#FFFFFF" stroke-width="12" stroke-linecap="round" stroke-linejoin="round" stroke-miterlimit="10" x1="1659.805" y1="-2380.063" x2="1582.826" y2="-2335.617"/>
			
				<polyline fill="none" stroke="#FFFFFF" stroke-width="12" stroke-linecap="round" stroke-linejoin="round" stroke-miterlimit="10" points="
				1788.107,-2335.617 1788.107,-2217.1 1685.466,-2157.84 1582.826,-2217.1 1582.826,-2335.617 			"/>
			
				<line fill="none" stroke="#FFFFFF" stroke-width="12" stroke-linecap="round" stroke-linejoin="round" stroke-miterlimit="10" x1="1711.125" y1="-2380.063" x2="1788.107" y2="-2335.617"/>
		</g>
		<g>
			<path fill="#FFFFFF" d="M1376.293-1960.645h-12.416v-62.482h-80.908v62.482h-12.416v-138.184h12.416v65.086h80.908v-65.086
				h12.416V-1960.645z"/>
			<path fill="#FFFFFF" d="M1467.811-1979.87l-5.406,11.215c-7.411,7.409-17.825,10.815-29.44,10.815
				c-19.625,0-33.644-10.214-33.644-29.439c0-24.232,23.03-36.049,61.281-36.049h6.81v-3.805c0-4.806,0-8.812-0.401-13.018
				c-1.001-12.216-8.412-19.226-23.632-19.226c-14.619,0-25.033,7.811-26.635,24.232h-13.018
				c1.401-20.828,17.223-34.245,39.652-34.245c23.432,0,34.447,10.614,36.048,28.037c0.401,4.605,0.401,9.012,0.401,14.019v37.049
				c0,9.413,0.6,17.023,2.002,29.64h-12.416L1467.811-1979.87z M1467.412-2013.716c-29.84-2.202-54.474,5.007-54.474,25.436
				c0,13.417,8.412,20.626,23.833,20.626c18.424,0,30.641-14.019,30.641-33.845V-2013.716z"/>
			<path fill="#FFFFFF" d="M1592.975-1993.688c-4.806,23.431-22.229,35.849-45.059,35.849c-26.437,0-47.064-18.225-47.064-55.675
				c0-35.046,22.632-55.874,49.267-55.874c24.433,0,40.654,15.02,43.858,37.45h-13.018c-3.604-17.824-14.219-27.638-31.242-27.638
				c-17.823,0-35.246,14.419-35.246,45.06c0,32.645,16.422,46.862,34.245,46.862c15.621,0,27.637-9.011,31.441-26.034H1592.975z"/>
			<path fill="#FFFFFF" d="M1627.017-1997.895v37.25h-12.416v-147.195h12.416v96.128l54.273-54.873h16.221l-51.869,50.667
				l52.271,55.273h-17.224l-44.06-47.463L1627.017-1997.895z"/>
			<path fill="#FFFFFF" d="M1839.296-2032.54v71.896h-24.834l-2.402-21.829l-6.208,14.819c-7.811,7.211-18.024,9.814-33.044,9.814
				c-37.65,0-62.684-26.035-62.684-71.096c0-46.461,31.042-72.696,68.892-72.696c37.851,0,58.878,20.427,61.683,47.463h-31.643
				c-3.204-15.621-13.819-24.232-30.441-24.232c-20.026,0-35.446,17.023-35.446,47.664c0,34.646,15.621,49.666,35.247,49.666
				c16.222,0,27.437-9.413,31.041-27.036h-28.238v-24.433H1839.296z"/>
			<path fill="#FFFFFF" d="M1926.011-2074.396v113.751h-31.242v-113.751h-46.061v-24.433h123.364v24.433H1926.011z"/>
		</g>
	</g>
	<g display="inline">
		<g>
			<polygon fill="none" stroke="#FFFFFF" stroke-width="3" stroke-miterlimit="10" points="323.151,-1141.476 374.47,-1171.104 
				425.792,-1141.476 425.792,-1082.216 374.47,-1052.586 323.151,-1082.216 			"/>
			<polygon fill="none" stroke="#FFFFFF" stroke-width="3" stroke-miterlimit="10" points="451.454,-974.232 502.773,-1003.863 
				554.092,-974.232 554.092,-914.975 502.773,-885.344 451.454,-914.975 			"/>
		</g>
		<g>
			<circle fill="none" stroke="#FFFFFF" stroke-width="4" stroke-miterlimit="10" cx="374.471" cy="-1111.847" r="9.876"/>
			
				<line fill="none" stroke="#FFFFFF" stroke-width="4" stroke-linecap="round" stroke-miterlimit="10" x1="374.47" y1="-1101.97" x2="374.47" y2="-885.344"/>
			<circle fill="none" stroke="#FFFFFF" stroke-width="4" stroke-miterlimit="10" cx="502.773" cy="-944.604" r="9.876"/>
			
				<line fill="none" stroke="#FFFFFF" stroke-width="4" stroke-linecap="round" stroke-miterlimit="10" x1="502.773" y1="-1171.104" x2="502.773" y2="-954.48"/>
		</g>
		<g>
			
				<polyline fill="none" stroke="#FFFFFF" stroke-width="12" stroke-linecap="round" stroke-linejoin="round" stroke-miterlimit="10" points="
				271.83,-1050.447 271.83,-1168.965 374.47,-1228.225 477.112,-1168.965 477.112,-1050.447 			"/>
			
				<line fill="none" stroke="#FFFFFF" stroke-width="12" stroke-linecap="round" stroke-linejoin="round" stroke-miterlimit="10" x1="271.83" y1="-1050.447" x2="348.811" y2="-1006.002"/>
			
				<line fill="none" stroke="#FFFFFF" stroke-width="12" stroke-linecap="round" stroke-linejoin="round" stroke-miterlimit="10" x1="477.112" y1="-1050.447" x2="400.132" y2="-1006.002"/>
			
				<polyline fill="none" stroke="#FFFFFF" stroke-width="12" stroke-linecap="round" stroke-linejoin="round" stroke-miterlimit="10" points="
				605.414,-1006.002 605.414,-887.484 502.773,-828.225 400.132,-887.484 400.132,-1006.002 			"/>
			
				<line fill="none" stroke="#FFFFFF" stroke-width="12" stroke-linecap="round" stroke-linejoin="round" stroke-miterlimit="10" x1="528.432" y1="-1050.447" x2="605.414" y2="-1006.002"/>
		</g>
	</g>
</g>
</svg>
